<svg xmlns="http://www.w3.org/2000/svg" viewBox="0 0 512 512" role="img" aria-labelledby="title desc">
  <title id="title">Seaweed Tide Planner maskable icon</title>
  <desc id="desc">A centered tide wave and seaweed mark with generous safe area.</desc>
  <rect width="512" height="512" fill="#0f766e"/>
  <circle cx="360" cy="142" r="50" fill="#f59e0b"/>
  <path d="M64 318c43-43 90-64 142-64 44 0 79 16 113 31 31 14 61 27 96 25 23-1 45-9 67-23v76c-24 12-50 18-77 18-47 0-83-16-118-32-31-14-60-27-94-24-42 4-84 27-129 68z" fill="#dff8f0"/>
  <path d="M92 268c36-34 76-51 119-51 39 0 73 14 105 28 31 13 61 26 96 24 19-1 39-8 60-20v49c-22 10-45 15-68 15-43 0-79-15-113-30-31-13-59-25-93-23-35 3-70 20-106 53z" fill="#7dd3fc"/>
  <path d="M246 382c-15-50-10-101 17-153 27 52 33 103 16 153zm-62 2c-22-41-25-86-7-135 29 39 38 81 31 130zm123 1c-9-48 2-91 32-130 18 49 14 94-9 136z" fill="#22c55e"/>
</svg>
