<svg xmlns="http://www.w3.org/2000/svg" viewBox="0 0 512 512" role="img" aria-labelledby="title desc">
  <title id="title">Seaweed Tide Planner icon</title>
  <desc id="desc">A tide wave, moon, and seaweed mark inside a teal app icon.</desc>
  <rect width="512" height="512" rx="96" fill="#0f766e"/>
  <circle cx="365" cy="132" r="54" fill="#f59e0b"/>
  <path d="M52 320c45-47 94-70 147-70 47 0 84 17 119 33 32 15 62 28 97 25 21-2 42-9 63-22v88c-24 12-50 18-76 18-47 0-84-17-119-33-32-15-62-28-97-25-42 4-84 27-134 71z" fill="#dff8f0"/>
  <path d="M70 260c42-43 87-64 137-64 43 0 78 15 112 30 33 14 63 27 99 25 20-1 41-8 63-20v63c-24 12-49 18-74 18-46 0-83-16-118-31-32-14-62-27-97-24-39 3-80 24-122 61z" fill="#7dd3fc"/>
  <path d="M242 395c-17-55-12-112 19-170 30 58 36 115 18 170zm-68 2c-25-45-28-94-8-148 32 43 43 90 34 143zm137 1c-10-53 2-100 35-143 20 54 16 104-10 149z" fill="#22c55e"/>
</svg>
